<?xml version="1.0" standalone="no"?>
<!DOCTYPE svg PUBLIC "-//W3C//DTD SVG 20010904//EN"
 "http://www.w3.org/TR/2001/REC-SVG-20010904/DTD/svg10.dtd">
<svg version="1.0" xmlns="http://www.w3.org/2000/svg"
 width="420.000000pt" height="80.000000pt" viewBox="0 0 420.000000 80.000000"
 preserveAspectRatio="xMidYMid meet">

<g transform="translate(0.000000,80.000000) scale(0.100000,-0.100000)"
fill="#FFFFFF" stroke="none">
<path d="M86 744 c-19 -18 -19 -20 -6 -43 6 -13 5 -46 -4 -102 -8 -46 -14 -93
-14 -104 0 -11 -3 -75 -6 -142 -4 -111 -3 -122 15 -139 15 -13 19 -30 19 -79
0 -65 11 -85 46 -85 28 0 34 17 34 91 0 33 4 59 10 59 6 0 10 -33 10 -80 0
-69 3 -81 20 -90 14 -7 26 -8 40 0 16 8 20 23 22 82 2 46 7 73 16 76 9 3 12
-12 12 -53 0 -68 13 -95 45 -95 31 0 38 13 46 80 l6 55 2 -61 c1 -64 12 -84
46 -84 34 0 45 20 45 82 0 55 1 58 25 58 15 0 28 7 32 18 3 9 15 27 26 39 12
13 17 30 14 43 -3 11 -2 22 2 25 13 7 10 123 -3 134 -13 11 -25 12 -130 10
-36 0 -62 4 -66 12 -8 11 -4 116 5 154 2 11 0 27 -5 35 -6 9 -2 23 11 42 32
44 4 92 -40 69 -28 -15 -198 -18 -213 -3 -17 17 -43 15 -62 -4z m59 -24 c10
-11 23 -16 29 -12 17 10 146 11 146 1 0 -5 13 0 29 12 49 36 71 1 26 -41 -24
-22 -24 -24 -8 -43 16 -17 16 -20 2 -30 -13 -10 -14 -16 -5 -31 8 -14 8 -20
-1 -23 -9 -3 -10 -9 -1 -23 9 -14 9 -22 0 -32 -6 -8 -7 -19 -2 -28 5 -8 5 -21
-1 -31 -7 -14 -5 -16 11 -12 12 3 22 -1 26 -10 5 -13 9 -14 25 -4 14 9 21 9
30 0 9 -9 15 -8 26 3 16 16 33 10 33 -12 0 -18 14 -18 30 1 32 39 54 0 24 -43
-14 -20 -14 -22 0 -22 21 0 20 -26 -1 -40 -13 -8 -14 -13 -5 -16 6 -3 12 -14
12 -24 0 -19 -26 -34 -42 -24 -6 4 -6 -1 1 -14 13 -25 -6 -46 -29 -32 -27 17
-30 11 -30 -64 0 -54 -4 -75 -14 -79 -25 -10 -36 16 -36 85 0 66 -1 68 -25 68
-23 0 -24 -3 -27 -68 -3 -59 -5 -67 -23 -67 -18 0 -20 8 -23 73 l-3 72 -29 0
-30 0 0 -74 c0 -54 -4 -77 -15 -86 -25 -21 -34 -1 -37 85 -3 74 -5 80 -25 83
-22 3 -23 0 -23 -56 0 -73 -6 -92 -31 -92 -17 0 -19 8 -19 70 0 59 -3 71 -20
80 -24 13 -26 45 -4 58 14 8 14 10 0 21 -21 18 -20 47 2 56 16 6 16 7 0 16
-22 12 -23 38 -3 46 14 5 14 8 -2 25 -17 19 -17 20 0 33 12 8 14 15 8 20 -14
8 -14 45 -1 45 6 0 8 11 4 25 -4 17 -1 27 9 31 13 5 14 9 4 26 -10 17 -9 22 4
31 16 10 15 13 -3 38 -32 43 0 70 37 29z"/>
<path d="M165 625 c-18 -17 -25 -35 -25 -63 0 -54 28 -82 85 -82 36 0 47 5 69
31 54 64 20 139 -63 139 -31 0 -48 -6 -66 -25z m128 -17 c34 -40 -12 -118 -69
-118 -27 0 -74 40 -74 64 0 74 96 110 143 54z"/>
<path d="M180 580 c0 -5 5 -10 10 -10 6 0 10 5 10 10 0 6 -4 10 -10 10 -5 0
-10 -4 -10 -10z"/>
<path d="M255 580 c4 -6 11 -8 16 -5 14 9 11 15 -7 15 -8 0 -12 -5 -9 -10z"/>
<path d="M217 540 c3 -11 9 -20 13 -20 4 0 10 9 13 20 4 15 0 20 -13 20 -13 0
-17 -5 -13 -20z"/>
<path d="M810 521 l-75 -6 -9 -128 c-5 -70 -6 -130 -3 -133 3 -4 45 -3 92 1
l85 7 0 29 c0 29 -1 29 -56 29 -47 0 -55 3 -52 18 2 12 14 18 40 20 74 6 76
62 2 62 -24 0 -44 5 -44 10 0 15 45 30 86 30 32 0 34 2 34 35 0 22 -5 34 -12
33 -7 -1 -47 -4 -88 -7z"/>
<path d="M936 469 c-3 -34 -6 -97 -6 -140 l0 -79 34 0 c18 0 54 3 80 6 44 6
46 8 46 40 0 34 0 34 -46 34 l-45 0 3 95 c3 99 1 105 -41 105 -15 0 -19 -12
-25 -61z"/>
<path d="M1651 487 l-43 -42 6 38 c7 37 7 37 -27 37 l-34 0 -6 -67 c-4 -38 -7
-99 -7 -136 l0 -68 33 3 c30 3 32 6 37 48 l5 45 33 -48 c33 -47 33 -47 57 -30
31 23 31 30 -5 77 -34 45 -36 58 -15 76 9 7 25 25 35 40 19 27 19 27 -3 48
l-23 22 -43 -43z"/>
<path d="M2190 523 c-85 -31 -121 -194 -56 -250 40 -34 81 -30 122 11 38 38
41 48 18 67 -14 11 -19 9 -36 -14 -11 -15 -26 -27 -34 -27 -34 0 -39 87 -8
138 21 32 38 28 31 -8 -6 -29 -5 -30 28 -30 24 0 35 5 40 19 11 36 -6 72 -41
87 -36 15 -41 15 -64 7z"/>
<path d="M2566 518 c-2 -7 -7 -70 -10 -140 l-6 -128 38 0 c22 0 60 3 86 6 44
6 46 8 46 40 l0 34 -50 0 -50 0 2 98 3 97 -28 3 c-16 2 -29 -2 -31 -10z"/>
<path d="M2810 518 c-58 -31 -93 -132 -70 -202 24 -73 90 -88 146 -32 38 38
41 48 18 67 -13 11 -19 8 -38 -16 -33 -41 -56 -29 -56 30 0 47 22 105 40 105
6 0 10 -14 10 -31 0 -28 2 -30 33 -27 28 3 32 7 35 34 6 59 -62 101 -118 72z"/>
<path d="M3166 518 c-2 -7 -7 -70 -10 -140 l-6 -128 38 0 c22 0 60 3 86 6 44
6 46 8 46 40 l0 34 -50 0 -50 0 2 98 3 97 -28 3 c-16 2 -29 -2 -31 -10z"/>
<path d="M3826 504 c-14 -15 -30 -43 -36 -63 -33 -120 24 -217 108 -182 46 19
66 65 67 149 0 69 -2 75 -28 98 -37 32 -77 31 -111 -2z m72 -108 c-4 -69 -19
-99 -39 -79 -15 15 -7 126 11 148 22 27 33 1 28 -69z"/>
<path d="M1116 468 c-3 -29 -7 -89 -8 -133 l-3 -80 33 -3 c32 -3 32 -3 32 42
0 41 2 46 23 46 49 0 67 11 67 41 0 28 -2 29 -45 29 -33 0 -45 4 -45 14 0 20
13 27 68 34 42 6 47 10 50 35 l3 27 -85 0 -85 0 -5 -52z"/>
<path d="M1362 443 c-39 -102 -62 -180 -55 -187 4 -3 19 -6 35 -6 21 0 31 6
38 25 7 19 17 25 40 25 25 0 30 -4 30 -25 0 -22 4 -25 35 -25 28 0 35 4 35 20
0 39 -40 222 -51 236 -6 8 -26 14 -44 14 -32 0 -34 -2 -63 -77z m64 -81 c-12
-12 -18 8 -10 35 l8 28 4 -28 c2 -16 1 -31 -2 -35z m73 -85 c1 -4 -5 -2 -13 5
-7 7 -11 19 -8 27 4 11 7 10 13 -5 4 -10 8 -23 8 -27z"/>
<path d="M1802 443 c-39 -102 -62 -180 -55 -187 4 -3 19 -6 35 -6 21 0 31 6
38 25 7 19 17 25 40 25 25 0 30 -4 30 -25 0 -22 4 -25 35 -25 28 0 35 4 35 20
0 39 -40 222 -51 236 -6 8 -26 14 -44 14 -32 0 -34 -2 -63 -77z m64 -81 c-12
-12 -18 8 -10 35 l8 28 4 -28 c2 -16 1 -31 -2 -35z m73 -85 c1 -4 -5 -2 -13 5
-7 7 -11 19 -8 27 4 11 7 10 13 -5 4 -10 8 -23 8 -27z"/>
<path d="M2378 452 c-32 -78 -58 -160 -58 -184 0 -14 8 -18 34 -18 28 0 35 4
38 23 2 17 11 23 36 25 29 3 32 1 32 -22 0 -23 4 -26 33 -26 19 0 36 2 39 5 6
7 -29 201 -44 238 -9 22 -16 27 -47 27 -35 0 -37 -2 -63 -68z m61 -86 c-14
-16 -20 0 -13 30 l8 29 6 -25 c4 -14 3 -29 -1 -34z m71 -86 c0 -13 -1 -13 -10
0 -5 8 -10 22 -10 30 0 13 1 13 10 0 5 -8 10 -22 10 -30z"/>
<path d="M2956 474 c-3 -26 -6 -78 -6 -115 0 -90 20 -114 87 -106 78 9 102 54
103 195 l0 72 -29 0 c-35 0 -41 -16 -41 -112 0 -73 -19 -110 -46 -87 -10 8
-12 32 -7 105 l6 94 -30 0 c-28 0 -31 -3 -37 -46z"/>
<path d="M3392 443 c-39 -102 -62 -180 -55 -187 4 -3 19 -6 35 -6 21 0 31 6
38 25 7 19 17 25 40 25 25 0 30 -4 30 -25 0 -22 4 -25 35 -25 28 0 35 4 35 20
0 39 -40 222 -51 236 -6 8 -26 14 -44 14 -32 0 -34 -2 -63 -77z m64 -81 c-12
-12 -18 8 -10 35 l8 28 4 -28 c2 -16 1 -31 -2 -35z m73 -85 c1 -4 -5 -2 -13 5
-7 7 -11 19 -8 27 4 11 7 10 13 -5 4 -10 8 -23 8 -27z"/>
<path d="M3570 485 c0 -32 2 -35 30 -35 l30 0 1 -72 c1 -40 1 -85 0 -100 -1
-24 3 -28 28 -28 27 0 28 2 35 61 3 34 6 82 6 105 0 42 1 44 30 44 27 0 30 3
30 30 l0 30 -95 0 -95 0 0 -35z"/>
<path d="M4013 512 c-14 -9 -34 -242 -23 -255 4 -5 18 -7 31 -5 19 2 25 10 29
41 3 21 10 38 15 39 6 1 20 -18 33 -40 20 -37 26 -41 43 -31 29 15 33 34 14
67 -16 27 -16 30 4 63 25 41 27 76 5 107 -13 19 -24 22 -77 22 -34 0 -67 -4
-74 -8z m97 -66 c0 -19 -27 -46 -47 -46 -10 0 -13 6 -9 16 3 9 6 22 6 30 0 8
10 14 25 14 15 0 25 -6 25 -14z"/>
</g>
</svg>
