<?xml version="1.0" standalone="no"?>
<!DOCTYPE svg PUBLIC "-//W3C//DTD SVG 20010904//EN"
 "http://www.w3.org/TR/2001/REC-SVG-20010904/DTD/svg10.dtd">
<svg version="1.0" xmlns="http://www.w3.org/2000/svg"
 width="260.000000pt" height="106.000000pt" viewBox="0 0 260.000000 106.000000"
 preserveAspectRatio="xMidYMid meet">

<g transform="translate(0.000000,106.000000) scale(0.100000,-0.100000)"
fill="#000000" stroke="none">
<path d="M137 933 c-11 -11 -8 -58 5 -71 8 -8 8 -15 -1 -26 -7 -8 -11 -23 -9
-33 1 -10 0 -23 -4 -29 -9 -14 -19 -132 -23 -282 -3 -113 -2 -124 16 -135 16
-10 19 -23 19 -79 0 -55 4 -72 20 -88 24 -24 30 -24 56 -6 15 11 20 31 25 88
l6 73 1 -82 c2 -89 14 -113 57 -113 33 0 45 27 45 104 0 52 3 66 15 66 12 0
15 -14 15 -65 0 -57 3 -66 24 -80 19 -13 29 -14 45 -6 19 11 27 34 34 111 2
19 5 5 5 -31 2 -50 6 -70 20 -82 46 -42 82 -6 82 82 0 39 4 60 10 56 17 -10
49 5 55 26 4 12 16 30 27 41 12 12 18 28 15 40 -3 11 0 29 6 39 9 14 9 24 1
36 -8 12 -8 25 0 45 8 20 7 33 0 46 -12 19 -34 21 -179 23 -45 0 -56 7 -55 35
0 10 2 60 4 109 2 61 8 101 20 123 13 25 14 37 5 53 -9 17 -17 20 -42 15 -64
-13 -235 -18 -242 -7 -7 12 -68 15 -78 4z m80 -39 c3 -10 9 -11 17 -5 6 5 36
9 66 7 30 -1 61 2 69 8 10 7 16 6 26 -7 11 -16 13 -15 30 4 20 21 56 22 62 2
2 -6 -10 -27 -28 -47 -23 -27 -27 -36 -15 -36 18 0 22 -35 6 -45 -8 -5 -7 -11
1 -21 9 -11 9 -17 -1 -29 -10 -12 -10 -18 0 -30 10 -13 10 -19 -3 -33 -13 -14
-14 -21 -5 -30 10 -10 10 -17 1 -31 -10 -16 -9 -18 6 -14 9 2 23 -2 30 -11 10
-12 16 -13 32 -3 17 10 22 9 33 -6 12 -15 14 -16 20 -2 8 23 46 19 46 -5 0
-26 12 -26 28 0 7 11 19 20 27 20 24 0 29 -27 10 -56 -16 -24 -16 -26 2 -40
17 -14 17 -15 -5 -31 -20 -14 -21 -17 -6 -28 25 -17 10 -45 -23 -45 -21 0 -24
-3 -15 -12 28 -28 -2 -57 -39 -38 -18 10 -19 7 -19 -62 0 -84 -10 -109 -37
-92 -14 9 -19 27 -21 88 l-3 77 -27 -3 c-26 -3 -27 -5 -30 -76 -3 -69 -4 -73
-25 -70 -20 3 -22 10 -27 78 l-5 75 -32 3 -32 3 -3 -88 c-3 -77 -5 -88 -22
-91 -28 -6 -36 15 -36 106 0 81 0 82 -25 82 -24 0 -25 -2 -25 -67 0 -76 -9
-97 -36 -91 -16 3 -19 14 -22 77 -2 61 -7 77 -22 88 -26 18 -25 50 1 58 l21 7
-21 15 c-25 17 -27 36 -6 53 14 12 14 15 -1 31 -19 22 -12 49 13 49 17 1 17 1
1 11 -20 11 -24 45 -7 51 8 3 8 10 -2 27 -12 20 -12 24 4 36 12 8 14 15 8 20
-18 11 -12 37 9 42 19 5 20 7 4 24 -19 21 -11 39 18 39 20 0 19 1 -6 26 -28
28 -34 59 -13 67 16 6 47 -11 54 -29z"/>
<path d="M244 811 c-85 -53 -50 -171 51 -171 59 0 105 47 105 108 0 64 -94
102 -156 63z m114 -17 c29 -20 29 -72 1 -108 -16 -21 -29 -26 -64 -26 -65 0
-98 44 -75 100 20 47 93 66 138 34z"/>
<path d="M240 750 c0 -5 7 -10 15 -10 8 0 15 5 15 10 0 6 -7 10 -15 10 -8 0
-15 -4 -15 -10z"/>
<path d="M325 750 c3 -5 10 -10 16 -10 5 0 9 5 9 10 0 6 -7 10 -16 10 -8 0
-12 -4 -9 -10z"/>
<path d="M284 714 c3 -9 6 -18 6 -20 0 -13 19 -1 23 16 4 15 0 20 -15 20 -14
0 -18 -5 -14 -16z"/>
<path d="M804 746 c-18 -13 -19 -28 -19 -216 0 -243 -7 -230 132 -230 l93 0 0
50 0 50 -55 0 -55 0 0 40 0 40 55 0 55 0 0 50 0 50 -55 0 -55 0 0 40 0 40 55
0 55 0 0 50 0 50 -93 0 c-65 0 -99 -4 -113 -14z"/>
<path d="M1050 530 l0 -230 94 0 94 0 11 44 c6 25 11 47 11 50 0 3 -18 6 -41
6 l-41 0 4 180 3 180 -67 0 -68 0 0 -230z"/>
<path d="M1280 530 l0 -230 60 0 60 0 0 90 0 90 40 0 40 0 0 50 0 50 -40 0
-40 0 0 40 0 40 40 0 40 0 0 50 0 50 -100 0 -100 0 0 -230z"/>
<path d="M1554 752 c-29 -19 -34 -56 -34 -251 l0 -201 65 0 65 0 0 50 c0 47 2
50 25 50 23 0 25 -3 25 -50 l0 -50 60 0 60 0 0 210 c0 263 8 250 -147 250 -60
0 -113 -4 -119 -8z m146 -178 c0 -72 -1 -74 -25 -74 -25 0 -25 1 -25 79 0 54
4 81 13 84 26 10 37 -16 37 -89z"/>
<path d="M1870 530 l0 -230 60 0 60 0 0 91 c0 88 1 90 23 87 20 -3 22 -10 27
-78 3 -41 9 -81 13 -87 5 -8 30 -13 65 -13 l57 0 -5 94 c-5 98 -22 135 -59
136 -10 1 -6 6 11 16 40 21 48 43 48 133 l0 81 -60 0 c-59 0 -59 0 -65 -32 -3
-18 -6 -58 -8 -88 -2 -49 -5 -55 -24 -58 -22 -3 -23 -1 -23 87 l0 91 -60 0
-60 0 0 -230z"/>
<path d="M2244 752 c-29 -19 -34 -56 -34 -251 l0 -201 65 0 65 0 0 50 c0 47 2
50 25 50 23 0 25 -3 25 -50 l0 -50 60 0 60 0 0 210 c0 263 8 250 -147 250 -60
0 -113 -4 -119 -8z m146 -178 c0 -72 -1 -74 -25 -74 -25 0 -25 1 -25 79 0 54
4 81 13 84 26 10 37 -16 37 -89z"/>
</g>
</svg>
