<?xml version="1.0" standalone="no"?>
<!DOCTYPE svg PUBLIC "-//W3C//DTD SVG 20010904//EN"
 "http://www.w3.org/TR/2001/REC-SVG-20010904/DTD/svg10.dtd">
<svg version="1.0" xmlns="http://www.w3.org/2000/svg"
 width="74.000000pt" height="101.000000pt" viewBox="0 0 74.000000 101.000000"
 preserveAspectRatio="xMidYMid meet">

<g transform="translate(0.000000,101.000000) scale(0.100000,-0.100000)"
fill="#000000" stroke="none">
<path d="M56 937 c-15 -11 -17 -21 -12 -48 4 -19 7 -41 6 -49 -1 -38 -7 -77
-13 -87 -4 -6 -8 -42 -10 -80 -2 -39 -6 -74 -9 -79 -3 -5 -6 -63 -7 -129 0
-66 -3 -132 -7 -147 -5 -21 0 -33 19 -52 22 -21 25 -35 29 -106 3 -85 17 -110
59 -110 37 0 49 28 49 111 0 46 4 79 10 79 6 0 10 -36 10 -88 0 -96 14 -132
53 -132 45 0 52 14 57 112 4 78 8 93 22 96 16 3 18 -6 18 -76 0 -85 14 -112
57 -112 37 0 53 31 53 103 0 38 4 67 10 67 6 0 10 -33 10 -80 0 -75 2 -81 26
-97 24 -15 29 -15 53 -2 24 14 26 20 29 96 3 73 5 80 21 76 25 -6 61 14 61 34
0 9 12 27 26 40 21 19 25 30 20 53 -3 16 -1 32 4 35 14 9 12 49 -2 63 -9 9 -9
15 0 24 19 19 14 63 -8 83 -17 15 -24 16 -46 6 -18 -8 -30 -8 -39 -1 -7 6 -41
9 -78 7 -36 -2 -71 0 -78 4 -24 14 -10 273 16 312 26 41 8 77 -38 77 -19 0
-37 -3 -41 -7 -4 -5 -38 -9 -74 -10 -37 -1 -88 -3 -113 -4 -30 -2 -54 4 -70
14 -28 20 -49 21 -73 4z m69 -32 c14 -13 25 -30 26 -37 0 -7 4 -3 9 10 11 26
45 29 58 6 8 -15 10 -15 15 0 7 18 42 22 52 6 4 -6 12 -5 21 4 18 19 44 10 44
-14 0 -15 5 -13 30 12 16 16 38 28 47 26 30 -6 27 -38 -7 -73 -31 -32 -31 -32
-10 -46 24 -16 19 -49 -8 -49 -13 0 -13 -2 1 -18 23 -25 21 -39 -4 -47 l-21
-7 21 -15 c25 -17 26 -26 5 -48 -13 -13 -14 -18 -4 -31 10 -11 10 -21 3 -37
-10 -22 -9 -23 18 -19 22 3 29 0 29 -12 0 -21 9 -20 33 1 19 17 20 17 34 -4
l15 -23 18 22 c22 28 50 18 50 -19 l0 -28 23 29 c15 18 30 27 42 25 29 -6 29
-32 0 -67 l-26 -31 23 -3 c33 -4 35 -35 4 -49 -23 -11 -24 -13 -10 -24 25 -18
13 -49 -19 -53 -24 -3 -26 -6 -16 -24 16 -29 -10 -55 -39 -39 -11 6 -23 11
-26 11 -3 0 -6 -37 -6 -82 0 -94 -7 -111 -41 -106 -23 3 -24 7 -27 96 l-3 92
-29 0 -30 0 0 -71 c0 -97 -19 -129 -54 -93 -12 11 -16 36 -16 95 l0 79 -40 0
-40 0 0 -94 c0 -97 -10 -123 -43 -110 -21 8 -27 36 -27 137 l0 88 -27 -3 c-28
-3 -28 -3 -31 -88 -2 -65 -6 -88 -19 -97 -31 -24 -43 2 -43 96 0 80 -2 87 -22
96 -31 14 -35 49 -8 68 l22 15 -21 11 c-27 15 -27 46 0 65 l21 14 -21 11 c-26
14 -27 46 -4 60 15 8 16 12 6 22 -20 20 -15 50 7 56 l21 6 -21 14 c-26 18 -25
38 2 57 12 9 17 16 11 16 -21 0 -25 34 -5 51 17 13 18 18 6 34 -15 21 -3 45
23 45 11 0 7 9 -11 31 -29 34 -32 49 -14 67 17 17 26 15 53 -13z"/>
<path d="M170 793 c-14 -9 -30 -24 -37 -33 -15 -19 -17 -95 -2 -122 12 -22 66
-48 100 -48 43 0 91 32 110 74 22 52 15 89 -23 121 -36 31 -110 34 -148 8z
m138 -23 c46 -43 20 -129 -44 -150 -68 -23 -124 13 -124 78 0 61 35 91 106 92
27 0 47 -7 62 -20z"/>
<path d="M265 731 c-7 -12 12 -24 25 -16 11 7 4 25 -10 25 -5 0 -11 -4 -15 -9z"/>
<path d="M170 720 c0 -5 7 -10 15 -10 8 0 15 5 15 10 0 6 -7 10 -15 10 -8 0
-15 -4 -15 -10z"/>
<path d="M214 684 c3 -9 6 -20 6 -25 0 -5 8 -9 17 -9 9 0 13 3 10 6 -3 4 -2
15 4 25 8 16 6 19 -17 19 -20 0 -25 -4 -20 -16z"/>
</g>
</svg>
